<svg width="40" height="40" viewBox="0 0 40 40" fill="none" xmlns="http://www.w3.org/2000/svg">
<path d="M21.6667 13.3333C22.9927 13.3333 24.2645 13.8601 25.2022 14.7978C26.1399 15.7355 26.6667 17.0073 26.6667 18.3333C26.6667 18.7754 26.8423 19.1993 27.1548 19.5118C27.4674 19.8244 27.8913 20 28.3333 20C28.7754 20 29.1993 19.8244 29.5118 19.5118C29.8244 19.1993 30 18.7754 30 18.3333C30 16.1232 29.122 14.0036 27.5592 12.4408C25.9964 10.878 23.8768 10 21.6667 10C21.2246 10 20.8007 10.1756 20.4882 10.4882C20.1756 10.8007 20 11.2246 20 11.6667C20 12.1087 20.1756 12.5326 20.4882 12.8452C20.8007 13.1577 21.2246 13.3333 21.6667 13.3333Z" fill="white"/>
<path d="M21.6667 6.66667C24.7609 6.66667 27.7283 7.89583 29.9162 10.0838C32.1042 12.2717 33.3333 15.2391 33.3333 18.3333C33.3333 18.7754 33.5089 19.1993 33.8215 19.5118C34.134 19.8244 34.558 20 35 20C35.442 20 35.8659 19.8244 36.1785 19.5118C36.4911 19.1993 36.6667 18.7754 36.6667 18.3333C36.6667 14.3551 35.0863 10.5398 32.2733 7.72673C29.4602 4.91369 25.6449 3.33334 21.6667 3.33334C21.2246 3.33334 20.8007 3.50893 20.4881 3.82149C20.1756 4.13405 20 4.55798 20 5C20 5.44203 20.1756 5.86595 20.4881 6.17851C20.8007 6.49107 21.2246 6.66667 21.6667 6.66667ZM36.25 26.5167C36.1583 26.2491 36.0001 26.0093 35.7901 25.8198C35.5802 25.6302 35.3255 25.4973 35.05 25.4333L25.05 23.15C24.7786 23.0885 24.496 23.0959 24.2282 23.1716C23.9604 23.2473 23.7157 23.3888 23.5167 23.5833C23.2833 23.8 23.2667 23.8167 22.1833 25.8833C18.5887 24.2269 15.7083 21.3348 14.0667 17.7333C16.1833 16.6667 16.2 16.6667 16.4167 16.4167C16.6112 16.2176 16.7527 15.973 16.8284 15.7051C16.9041 15.4373 16.9115 15.1548 16.85 14.8833L14.5667 5C14.5027 4.7245 14.3698 4.46979 14.1802 4.25986C13.9907 4.04992 13.7509 3.89167 13.4833 3.8C13.0941 3.66098 12.6922 3.5605 12.2833 3.5C11.8621 3.40233 11.4322 3.3465 11 3.33334C8.96667 3.33334 7.01662 4.14107 5.57884 5.57885C4.14106 7.01663 3.33333 8.96668 3.33333 11C3.34215 17.8045 6.04914 24.3278 10.8607 29.1393C15.6722 33.9509 22.1955 36.6579 29 36.6667C30.0068 36.6667 31.0037 36.4684 31.9339 36.0831C32.8641 35.6978 33.7092 35.1331 34.4211 34.4212C35.1331 33.7092 35.6978 32.8641 36.0831 31.9339C36.4684 31.0037 36.6667 30.0068 36.6667 29C36.6672 28.5758 36.6337 28.1522 36.5667 27.7333C36.4966 27.3194 36.3907 26.9123 36.25 26.5167Z" fill="white"/>
</svg>
